<?xml version="1.0" encoding="utf-8"?>
<!-- Generator: Adobe Illustrator 17.0.0, SVG Export Plug-In . SVG Version: 6.00 Build 0)  -->
<!DOCTYPE svg PUBLIC "-//W3C//DTD SVG 1.0//EN" "http://www.w3.org/TR/2001/REC-SVG-20010904/DTD/svg10.dtd">
<svg version="1.0" id="Camada_1" xmlns="http://www.w3.org/2000/svg" xmlns:xlink="http://www.w3.org/1999/xlink" x="0px" y="0px"
	 width="960px" height="560px" viewBox="0 0 960 560" enable-background="new 0 0 960 560" xml:space="preserve">
<circle fill="#FFD905" cx="232.971" cy="259.783" r="109.259"/>
<circle fill="#FFD905" cx="368.357" cy="262.266" r="109.259"/>
<circle fill="#FFD905" cx="793.911" cy="262.266" r="109.259"/>
<g>
	<path d="M189.406,190.39h17.928v65.053c0,15.879,0.854,26.808,2.565,32.783c2.565,8.538,7.459,15.282,14.685,20.232
		c7.223,4.952,15.837,7.428,25.841,7.428c10.002,0,18.488-2.411,25.457-7.235c6.967-4.822,11.777-11.161,14.429-19.017
		c1.794-5.378,2.693-16.775,2.693-34.191V190.39h18.312v68.382c0,19.208-2.241,33.679-6.723,43.411s-11.227,17.352-20.233,22.858
		c-9.008,5.506-20.297,8.26-33.871,8.26c-13.574,0-24.907-2.754-33.999-8.26c-9.092-5.507-15.879-13.19-20.361-23.051
		c-4.482-9.86-6.723-24.692-6.723-44.5V190.39z"/>
	<path d="M293.145,190.39h17.928v24.971c7.171-9.561,15.111-16.711,23.818-21.45c8.708-4.738,18.184-7.107,28.429-7.107
		c10.415,0,19.657,2.647,27.724,7.939c8.068,5.294,14.022,12.421,17.864,21.385c3.841,8.964,5.762,22.922,5.762,41.875v71.712
		h-17.928v-66.461c0-16.049-0.667-26.764-1.995-32.142c-2.077-9.22-6.063-16.155-11.953-20.809
		c-5.891-4.652-13.576-6.979-23.052-6.979c-10.845,0-20.559,3.586-29.139,10.757c-8.582,7.171-14.238,16.051-16.97,26.636
		c-1.708,6.915-2.561,19.551-2.561,37.905v51.095h-17.928V190.39z"/>
</g>
<g>
	<rect x="18.121" y="152.806" fill="none" width="132.839" height="287.826"/>
	<path stroke="#000000" stroke-width="7" stroke-miterlimit="10" d="M92.671,210.503v-2.36h5.77l-0.262,2.623L97.916,331.14
		c0,27.273-18.357,48.778-39.862,48.778h-2.623v-5.245h2.623c19.407,0,34.617-19.931,34.617-43.533V210.503z M95.293,184.802h-2.623
		v-5.245h2.623h0.262h2.623v5.245h-2.623H95.293z"/>
</g>
<g>
	<rect x="443.682" y="150.524" fill="none" width="132.839" height="292.775"/>
	<path stroke="#000000" stroke-width="7" stroke-miterlimit="10" d="M504.333,210.843v87.592
		c0.263,18.357,13.899,27.799,37.24,27.799h2.622v5.245h-2.622c-27.537,0-42.223-12.063-42.485-33.044v-87.592h-20.456h-2.623
		v-5.245h2.623h20.456v-27.537v-2.623h5.245v2.623v27.537h37.24h2.622v5.245h-2.622H504.333z"/>
</g>
<g>
	<rect x="527.803" y="151.15" fill="none" width="193.869" height="247.614"/>
	<path stroke="#000000" stroke-width="7" stroke-miterlimit="10" d="M565.99,269.165c0-35.142,24.651-62.941,54.549-62.941
		c20.539,0,38.642,14.217,47.205,35.354v-32.731v-2.623h5.245v2.623v60.318v60.318v2.622h-5.245v-2.622v-32.732
		c-8.563,21.138-26.666,35.354-47.205,35.354C590.642,332.105,565.99,304.307,565.99,269.165z M571.235,269.165
		c0,31.994,22.029,57.695,49.304,57.695c25.963,0,47.205-25.963,47.205-57.695c0-31.733-21.242-57.696-47.205-57.696
		C593.265,211.469,571.235,237.17,571.235,269.165z"/>
</g>
<g>
	<rect x="696.976" y="151.15" fill="none" width="193.869" height="247.614"/>
	<path stroke="#000000" stroke-width="7" stroke-miterlimit="10" d="M840.065,303.52l4.196,3.147
		c-8.13,11.276-23.078,25.701-50.353,25.438c-31.995,0-57.695-27.799-57.695-62.94c0-35.142,25.7-62.941,57.695-62.941
		c31.732,0,57.696,27.799,57.696,62.941v2.622h-2.623H741.511c1.221,30.766,23.833,55.073,52.398,55.073
		C819.086,327.123,832.461,313.748,840.065,303.52z M741.511,266.542h104.85c0-29.373-23.341-55.073-52.451-55.073
		C765.344,211.469,742.731,235.777,741.511,266.542z"/>
</g>
<polygon points="785.459,166.464 803.261,166.464 840.393,199.377 825.114,199.377 794.805,172.15 763.577,199.377 747.428,199.377 
	"/>
</svg>
